<?xml version="1.0" encoding="utf-8"?>
<!-- Generator: Adobe Illustrator 19.0.0, SVG Export Plug-In . SVG Version: 6.00 Build 0)  -->
<svg version="1.1" id="Layer_1" xmlns="http://www.w3.org/2000/svg" xmlns:xlink="http://www.w3.org/1999/xlink" x="0px" y="0px"
	 viewBox="0 0 3000 1200" style="enable-background:new 0 0 3000 1200;" xml:space="preserve">
<style type="text/css">
	.st0{fill:#1D1D1D;}
	.st1{fill:#FFFFFF;}
</style>
<rect id="XMLID_1_" class="st0" width="3000" height="1200"/>
<g id="XMLID_4_">
	<path id="XMLID_5_" class="st1" d="M813.1,619.9c-6.5-8.2-13.8-14.3-21.8-18.5c-8-4.2-17.5-5.9-28.4-5.3c-8.8-0.6-16.8,0.6-24,3.6
		c-7.2,3-13.4,7.3-18.6,12.7c-5.2,5.4-9.3,11.9-12.1,19.4c-2.9,7.5-4.3,15.9-4.3,25.3c0,8.3,1.5,16.2,4.5,23.6
		c3,7.4,7.2,13.8,12.4,19.2c5.2,5.4,11.4,9.6,18.6,12.6c7.2,3,15,4.8,23.5,5.4c7.1-0.6,13.6-2.1,19.4-4.4c5.8-2.3,11-5.4,15.6-9.1
		c4.5-3.7,8.4-7.9,11.7-12.5c3.3-4.6,5.8-9,7.6-13.1l62.4,17.3c-2.6,9.1-7,18.5-13.3,28.4c-6.3,9.8-14.5,18.8-24.5,26.9
		c-10.1,8.1-22,14.8-35.9,20.1s-29.6,7.9-47.3,7.9c-18,0-34.6-3.3-49.7-9.9c-15.1-6.6-28.2-15.6-39.1-26.9
		c-10.9-11.4-19.4-24.7-25.5-40c-6.1-15.3-9.2-31.7-9.2-49.3c0-17.4,3.1-33.6,9.4-48.5c6.3-14.9,14.9-27.9,26-39.1
		c11-11.1,24.2-19.8,39.4-26c15.2-6.2,31.7-9,49.6-8.4c12.7-0.6,25,0.8,37,4.3c12,3.5,23.3,8.7,34.1,15.7h45.2v68.3H813.1z"/>
	<path id="XMLID_7_" class="st1" d="M903,655.3c0-17.1,3.1-33.1,9.3-48.1c6.2-15,14.8-28.1,25.9-39.3c11-11.2,24.2-20.1,39.5-26.6
		c15.3-6.5,32.1-9.8,50.4-9.8c18.3,0,35.2,3.3,50.5,9.8c15.4,6.5,28.6,15.4,39.6,26.6c11,11.2,19.6,24.3,25.8,39.3s9.2,31,9.2,48.1
		c0,17.1-3,33.2-9,48.2c-6,15.1-14.5,28.2-25.4,39.5c-11,11.3-24.1,20.2-39.5,26.7c-15.4,6.5-32.4,9.8-51.2,9.8
		c-18.9,0-36.1-3.3-51.4-9.8c-15.4-6.5-28.5-15.4-39.4-26.6c-10.9-11.2-19.3-24.3-25.3-39.4C906,688.7,903,672.5,903,655.3z
		 M970.9,655.3c0,8.9,1.5,17.1,4.5,24.6c3,7.5,7.2,14,12.4,19.4s11.3,9.7,18.2,12.7c6.9,3,14.3,4.5,22.1,4.5c8,0,15.5-1.5,22.4-4.4
		c6.9-3,12.9-7.2,17.9-12.6c5.1-5.4,9-11.9,11.9-19.4c2.9-7.5,4.3-15.8,4.3-24.9c0-9.4-1.4-17.9-4.3-25.4c-2.9-7.6-6.9-14-11.9-19.3
		c-5.1-5.3-11.1-9.3-17.9-12.1c-6.9-2.8-14.3-4.1-22.4-4c-7.9-0.1-15.3,1.2-22.1,4c-6.9,2.8-12.9,6.9-18.2,12.1
		c-5.2,5.3-9.3,11.7-12.4,19.3C972.4,637.4,970.9,645.9,970.9,655.3z"/>
	<path id="XMLID_10_" class="st1" d="M1400.9,624.2h-63.8v-24.3c-6.2,0-11.9,0.4-17,1.2c-5.1,0.8-9.6,2.2-13.5,4.2
		c-3.9,2-7.1,4.7-9.8,8.2c-2.7,3.5-4.5,7.8-5.6,12.9v85.1h47.9v62.2h-153.5v-62.2h35.2V600.8h-34.7v-62.2h104.7v16.6
		c6.7-5.3,14.2-9.4,22.5-12.3c8.3-2.9,17.4-4.3,27.2-4.3c10,0,20.3,0.1,30.9,0.2c10.6,0.2,20.4,0.2,29.5,0.2V624.2z"/>
	<path id="XMLID_12_" class="st1" d="M1578.7,420.5h102.8v291.1h45.9v62.2h-115.8v-9.1c-8.2,4.2-16.5,7.6-25.1,10
		c-8.6,2.4-17.2,3.6-26,3.6c-18,0-34.5-3.2-49.6-9.6c-15.1-6.4-28-15.2-38.8-26.4c-10.8-11.2-19.3-24.3-25.3-39.4
		c-6.1-15.1-9.1-31.2-9.1-48.5s3-33.3,9-48.2c6-14.9,14.3-27.9,25-38.9c10.7-11,23.5-19.8,38.4-26.1c14.9-6.4,31.3-9.5,49.2-9.5
		c9.8,0,19.1,0.9,27.7,2.8c8.6,1.9,16.9,4.6,24.7,8.1v-59.7h-32.9V420.5z M1564.4,715.7c10-0.3,19-2.9,27.1-7.7
		c8.1-4.8,14.8-11.2,20.1-19.1v-69.2c-5.3-8-12.1-14.3-20.5-18.7c-8.4-4.5-17.3-6.6-26.7-6.5c-7.9-0.1-15.3,1.2-22.1,4.1
		c-6.9,2.9-12.9,7-18.2,12.3c-5.2,5.3-9.3,11.7-12.4,19.1c-3,7.4-4.5,15.8-4.5,25.2c0,9.2,1.5,17.6,4.5,25.1
		c3,7.5,7.2,13.8,12.4,19.1c5.2,5.2,11.3,9.2,18.2,11.9C1549.1,713.9,1556.5,715.4,1564.4,715.7z"/>
	<path id="XMLID_15_" class="st1" d="M1757.3,538.6h105.6v173h32.7v62.2h-138.3v-62.2h35.4V600.8h-35.4V538.6z M1789.1,462.8
		c0-5.6,1-10.9,3.1-15.8c2-4.9,4.9-9.2,8.5-12.8c3.6-3.6,7.9-6.5,12.8-8.6c4.9-2.1,10.3-3.2,16-3.2c5.4,0,10.6,1.1,15.4,3.2
		c4.8,2.1,9.1,5,12.7,8.6s6.5,7.9,8.6,12.8c2.1,4.9,3.2,10.2,3.2,15.8c0,5.6-1.1,10.9-3.2,15.8c-2.1,4.9-5,9.2-8.6,12.8
		s-7.9,6.5-12.7,8.6c-4.8,2.1-10,3.2-15.4,3.2c-5.8,0-11.1-1.1-16-3.2c-4.9-2.1-9.2-5-12.8-8.6c-3.6-3.6-6.5-7.9-8.5-12.8
		C1790.2,473.6,1789.1,468.4,1789.1,462.8z"/>
	<path id="XMLID_18_" class="st1" d="M2081.3,761.1c-5.3,3.3-10.1,6.2-14.5,8.5c-4.4,2.3-8.8,4.2-13.2,5.7
		c-4.4,1.4-8.9,2.5-13.6,3.2c-4.7,0.7-9.8,1-15.4,1c-14.1,0-26.7-1.9-37.8-5.8c-11.1-3.9-20.5-9.2-28.2-15.9
		c-7.6-6.7-13.5-14.7-17.6-23.8c-4.1-9.2-6.1-19.1-6.1-29.9c0-10.9,2.1-21,6.2-30.2c4.2-9.2,10.2-17.1,18-23.7
		c7.9-6.6,17.5-11.7,28.9-15.4c11.4-3.7,24.5-5.6,39.2-5.6c10.7,0,20.5,0.6,29.4,1.7s17.1,2.5,24.6,4.2v-7.3c0-5.9-1.1-11-3.4-15.3
		c-2.3-4.3-5.4-7.9-9.5-10.7c-4.1-2.8-9-4.8-14.8-6.1c-5.8-1.3-12-1.9-18.8-1.9c-14.2,0-26.8,1.4-37.6,4.2
		c-10.8,2.8-21.2,6.9-31.2,12.1l-21.8-44c15.4-10.6,31.6-18.7,48.5-24.3c16.9-5.6,34.8-8.4,53.7-8.4c14.7,0,28.3,1.6,40.8,4.9
		c12.5,3.3,23.2,8.6,32.1,15.9c8.9,7.3,15.9,16.9,21,28.7c5.1,11.8,7.6,26.2,7.6,43.1v85.6h31.6v62.2h-98.1V761.1z M2029.6,725.9
		c10.7,0,20.5-1.7,29.3-5.2c8.8-3.5,16.3-7.7,22.5-12.7v-30h-54.5c-3.5,0-6.9,0.5-10.2,1.6c-3.3,1.1-6.3,2.6-9,4.5
		c-2.6,2-4.8,4.4-6.4,7.3c-1.6,2.9-2.4,6.2-2.4,10c0,7,2.5,12.8,7.6,17.5C2011.6,723.5,2019.3,725.9,2029.6,725.9z"/>
	<path id="XMLID_21_" class="st1" d="M2222.5,420.5h106v291.1h36.3v62.2h-142.4v-62.2h36.3V482.7h-36.3V420.5z"/>
</g>
</svg>
